# xmcd CD database file
#
# Track frame offsets:
#	150
#	21713
#	46280
#	62544
#	84031
#	110400
#	128999
#	150600
#	168811
#	191479
#	214953
#	242427
#	268205
#
# Disc length: 3939 seconds
#
# Revision: 0
# Processed by: cddbd v1.5.2PL0 Copyright (c) Steve Scherf et al.
# Submitted via: CDex 1.51
#
DISCID=ac0f610d
DTITLE=Till Brönner - Rio
DYEAR=2008
DGENRE=Jazz
TTITLE0=Mistérios (Mysteries)
TTITLE1=O Que Será
TTITLE2=Só danco samba
TTITLE3=Once I Loved (Amor em paz)
TTITLE4=Evening (Tarde)
TTITLE5=Ela é carioca
TTITLE6=High Night (Alta noite)
TTITLE7=Café com pao
TTITLE8=Lígia
TTITLE9=Sim ou nao
TTITLE10=A ra
TTITLE11=Bonita
TTITLE12=Aquelas coisas todas
EXTD=YEAR: 2008
EXTT0=
EXTT1=
EXTT2=
EXTT3=
EXTT4=
EXTT5=
EXTT6=
EXTT7=
EXTT8=
EXTT9=
EXTT10=
EXTT11=
EXTT12=
PLAYORDER=
